<mxfile host="app.diagrams.net" modified="2021-01-06T05:22:59.992Z" agent="5.0 (Windows NT 10.0; Win64; x64) AppleWebKit/537.36 (KHTML, like Gecko) Chrome/87.0.4280.88 Safari/537.36" etag="wXVM7wN8IA4vla8shn2U" version="14.1.8" type="github">
  <diagram name="Page-1" id="e7e014a7-5840-1c2e-5031-d8a46d1fe8dd">
    <mxGraphModel dx="1102" dy="526" grid="0" gridSize="10" guides="1" tooltips="1" connect="1" arrows="1" fold="1" page="1" pageScale="1" pageWidth="1169" pageHeight="827" background="#114B5F" math="0" shadow="1">
      <root>
        <mxCell id="0" />
        <mxCell id="1" parent="0" />
        <mxCell id="X5VlqfSBKwNz3F7be3ju-46" value="RUNNING" style="ellipse;whiteSpace=wrap;html=1;fillColor=#F45B69;strokeColor=#028090;fontColor=#E4FDE1;" parent="1" vertex="1">
          <mxGeometry x="80" y="370" width="120" height="80" as="geometry" />
        </mxCell>
        <mxCell id="X5VlqfSBKwNz3F7be3ju-76" style="edgeStyle=orthogonalEdgeStyle;orthogonalLoop=1;jettySize=auto;html=1;entryX=0.5;entryY=0;entryDx=0;entryDy=0;fontFamily=Verdana;strokeColor=#028090;curved=1;fontColor=#E4FDE1;labelBackgroundColor=#114B5F;" parent="1" source="X5VlqfSBKwNz3F7be3ju-77" target="X5VlqfSBKwNz3F7be3ju-48" edge="1">
          <mxGeometry relative="1" as="geometry" />
        </mxCell>
        <mxCell id="X5VlqfSBKwNz3F7be3ju-47" value="SHUTDOWN" style="ellipse;whiteSpace=wrap;html=1;fillColor=#F45B69;strokeColor=#028090;fontColor=#E4FDE1;" parent="1" vertex="1">
          <mxGeometry x="396" y="270" width="120" height="90" as="geometry" />
        </mxCell>
        <mxCell id="X5VlqfSBKwNz3F7be3ju-48" value="STOP" style="ellipse;whiteSpace=wrap;html=1;fillColor=#F45B69;strokeColor=#028090;fontColor=#E4FDE1;" parent="1" vertex="1">
          <mxGeometry x="396" y="440" width="120" height="80" as="geometry" />
        </mxCell>
        <mxCell id="X5VlqfSBKwNz3F7be3ju-71" style="edgeStyle=orthogonalEdgeStyle;orthogonalLoop=1;jettySize=auto;html=1;exitX=1;exitY=0.5;exitDx=0;exitDy=0;strokeColor=#028090;curved=1;fontColor=#E4FDE1;labelBackgroundColor=#114B5F;" parent="1" source="X5VlqfSBKwNz3F7be3ju-55" target="X5VlqfSBKwNz3F7be3ju-56" edge="1">
          <mxGeometry relative="1" as="geometry" />
        </mxCell>
        <mxCell id="X5VlqfSBKwNz3F7be3ju-55" value="TIDYING" style="ellipse;whiteSpace=wrap;html=1;fillColor=#F45B69;strokeColor=#028090;fontColor=#E4FDE1;" parent="1" vertex="1">
          <mxGeometry x="646" y="370" width="120" height="80" as="geometry" />
        </mxCell>
        <mxCell id="X5VlqfSBKwNz3F7be3ju-56" value="TERMINATED" style="ellipse;whiteSpace=wrap;html=1;fillColor=#F45B69;strokeColor=#028090;fontColor=#E4FDE1;" parent="1" vertex="1">
          <mxGeometry x="876" y="370" width="120" height="80" as="geometry" />
        </mxCell>
        <mxCell id="X5VlqfSBKwNz3F7be3ju-64" value="" style="endArrow=classic;html=1;entryX=0;entryY=0.5;entryDx=0;entryDy=0;exitX=0.5;exitY=0;exitDx=0;exitDy=0;fontFamily=Verdana;strokeColor=#028090;curved=1;fontColor=#E4FDE1;labelBackgroundColor=#114B5F;" parent="1" target="X5VlqfSBKwNz3F7be3ju-47" edge="1">
          <mxGeometry width="50" height="50" relative="1" as="geometry">
            <mxPoint x="166" y="370" as="sourcePoint" />
            <mxPoint x="236" y="320" as="targetPoint" />
          </mxGeometry>
        </mxCell>
        <mxCell id="X5VlqfSBKwNz3F7be3ju-67" value="" style="endArrow=classic;html=1;entryX=0;entryY=0.375;entryDx=0;entryDy=0;entryPerimeter=0;exitX=0.45;exitY=0.988;exitDx=0;exitDy=0;exitPerimeter=0;strokeColor=#028090;curved=1;fontColor=#E4FDE1;labelBackgroundColor=#114B5F;" parent="1" target="X5VlqfSBKwNz3F7be3ju-48" edge="1">
          <mxGeometry width="50" height="50" relative="1" as="geometry">
            <mxPoint x="160" y="449.03999999999996" as="sourcePoint" />
            <mxPoint x="346.71067811865476" y="410" as="targetPoint" />
          </mxGeometry>
        </mxCell>
        <mxCell id="X5VlqfSBKwNz3F7be3ju-72" value="" style="endArrow=classic;html=1;entryX=0;entryY=0.5;entryDx=0;entryDy=0;exitX=1;exitY=0.5;exitDx=0;exitDy=0;strokeColor=#028090;curved=1;fontColor=#E4FDE1;labelBackgroundColor=#114B5F;" parent="1" source="X5VlqfSBKwNz3F7be3ju-48" target="X5VlqfSBKwNz3F7be3ju-55" edge="1">
          <mxGeometry width="50" height="50" relative="1" as="geometry">
            <mxPoint x="506" y="500" as="sourcePoint" />
            <mxPoint x="556" y="450" as="targetPoint" />
          </mxGeometry>
        </mxCell>
        <mxCell id="X5VlqfSBKwNz3F7be3ju-73" value="" style="endArrow=classic;html=1;exitX=1.017;exitY=0.425;exitDx=0;exitDy=0;exitPerimeter=0;entryX=-0.017;entryY=0.363;entryDx=0;entryDy=0;entryPerimeter=0;strokeColor=#028090;curved=1;fontColor=#E4FDE1;labelBackgroundColor=#114B5F;" parent="1" source="X5VlqfSBKwNz3F7be3ju-47" target="X5VlqfSBKwNz3F7be3ju-55" edge="1">
          <mxGeometry width="50" height="50" relative="1" as="geometry">
            <mxPoint x="456" y="400" as="sourcePoint" />
            <mxPoint x="506" y="350" as="targetPoint" />
          </mxGeometry>
        </mxCell>
        <mxCell id="X5VlqfSBKwNz3F7be3ju-74" value="shutdown()" style="text;html=1;resizable=0;autosize=1;align=center;verticalAlign=middle;points=[];fillColor=none;strokeColor=none;fontFamily=Verdana;fontColor=#E4FDE1;" parent="1" vertex="1">
          <mxGeometry x="266" y="320" width="80" height="20" as="geometry" />
        </mxCell>
        <mxCell id="X5VlqfSBKwNz3F7be3ju-75" value="shutdownNow()" style="text;html=1;resizable=0;autosize=1;align=center;verticalAlign=middle;points=[];fillColor=none;strokeColor=none;fontFamily=Verdana;fontColor=#E4FDE1;" parent="1" vertex="1">
          <mxGeometry x="251" y="440" width="110" height="20" as="geometry" />
        </mxCell>
        <mxCell id="X5VlqfSBKwNz3F7be3ju-77" value="shutdownNow()" style="text;html=1;resizable=0;autosize=1;align=center;verticalAlign=middle;points=[];fillColor=none;strokeColor=none;fontFamily=Verdana;fontColor=#E4FDE1;" parent="1" vertex="1">
          <mxGeometry x="356" y="380" width="110" height="20" as="geometry" />
        </mxCell>
        <mxCell id="X5VlqfSBKwNz3F7be3ju-78" style="edgeStyle=orthogonalEdgeStyle;orthogonalLoop=1;jettySize=auto;html=1;entryX=0.5;entryY=0;entryDx=0;entryDy=0;fontFamily=Verdana;strokeColor=#028090;curved=1;fontColor=#E4FDE1;labelBackgroundColor=#114B5F;" parent="1" source="X5VlqfSBKwNz3F7be3ju-47" target="X5VlqfSBKwNz3F7be3ju-77" edge="1">
          <mxGeometry relative="1" as="geometry">
            <mxPoint x="456" y="360" as="sourcePoint" />
            <mxPoint x="456" y="440" as="targetPoint" />
          </mxGeometry>
        </mxCell>
        <mxCell id="X5VlqfSBKwNz3F7be3ju-79" value="terminated()" style="text;html=1;resizable=0;autosize=1;align=center;verticalAlign=middle;points=[];fillColor=none;strokeColor=none;fontFamily=Verdana;fontColor=#E4FDE1;" parent="1" vertex="1">
          <mxGeometry x="776" y="380" width="90" height="20" as="geometry" />
        </mxCell>
        <mxCell id="X5VlqfSBKwNz3F7be3ju-80" value="不接受task，执行队列中的task" style="text;html=1;resizable=0;autosize=1;align=center;verticalAlign=middle;points=[];fillColor=none;strokeColor=none;fontFamily=Verdana;fontColor=#E4FDE1;" parent="1" vertex="1">
          <mxGeometry x="356" y="230" width="190" height="20" as="geometry" />
        </mxCell>
        <mxCell id="X5VlqfSBKwNz3F7be3ju-81" value="不接受task，不执行队列中的task" style="text;html=1;resizable=0;autosize=1;align=center;verticalAlign=middle;points=[];fillColor=none;strokeColor=none;fontFamily=Verdana;fontColor=#E4FDE1;" parent="1" vertex="1">
          <mxGeometry x="356" y="550" width="200" height="20" as="geometry" />
        </mxCell>
        <mxCell id="X5VlqfSBKwNz3F7be3ju-82" value="所有task终止，workerCount为0" style="text;html=1;resizable=0;autosize=1;align=center;verticalAlign=middle;points=[];fillColor=none;strokeColor=none;fontFamily=Verdana;fontColor=#E4FDE1;" parent="1" vertex="1">
          <mxGeometry x="606" y="230" width="200" height="20" as="geometry" />
        </mxCell>
        <mxCell id="X5VlqfSBKwNz3F7be3ju-83" value="终止" style="text;html=1;resizable=0;autosize=1;align=center;verticalAlign=middle;points=[];fillColor=none;strokeColor=none;fontFamily=Verdana;fontColor=#E4FDE1;" parent="1" vertex="1">
          <mxGeometry x="906" y="230" width="40" height="20" as="geometry" />
        </mxCell>
        <mxCell id="X5VlqfSBKwNz3F7be3ju-84" value="运行中，接受task，执行队列中的task" style="text;html=1;resizable=0;autosize=1;align=center;verticalAlign=middle;points=[];fillColor=none;strokeColor=none;fontFamily=Verdana;fontColor=#E4FDE1;" parent="1" vertex="1">
          <mxGeometry x="80" y="230" width="220" height="20" as="geometry" />
        </mxCell>
      </root>
    </mxGraphModel>
  </diagram>
</mxfile>
